<svg width="220" height="130" viewBox="0 0 220 130" fill="none" xmlns="http://www.w3.org/2000/svg">
<rect width="220" height="130" fill="white"/>
<path fill-rule="evenodd" clip-rule="evenodd" d="M130.073 28.1462L130.076 28.1411C125.92 23.1668 119.672 20 112.683 20C103.789 20 96.0958 25.1287 92.3877 32.5868H121.918C124.037 32.5868 126.099 31.8567 127.72 30.4923C128.563 29.7833 129.351 29.0113 130.073 28.1462" fill="#FEC514"/>
<path fill-rule="evenodd" clip-rule="evenodd" d="M90.0254 42.6565C90.0254 44.6889 90.2973 46.6566 90.7991 48.5304H118.555C121.799 48.5304 124.429 45.9006 124.429 42.6565C124.429 39.4125 121.799 36.7827 118.555 36.7827H90.7991C90.2973 38.6565 90.0254 40.6242 90.0254 42.6565" fill="#343741"/>
<path fill-rule="evenodd" clip-rule="evenodd" d="M130.073 57.1672L130.076 57.1722C125.92 62.1465 119.672 65.3133 112.683 65.3133C103.789 65.3133 96.0958 60.1846 92.3877 52.7266H121.918C124.037 52.7266 126.099 53.4566 127.72 54.821C128.563 55.5301 129.351 56.302 130.073 57.1672" fill="#00BFB3"/>
<path fill-rule="evenodd" clip-rule="evenodd" d="M55.8541 98.5072V81.2554H52.69V98.5072H55.8541ZM49.8277 98.5075V95.5254H41.3148V91.3356H47.7434V88.3535H41.3148V84.2378H49.8277V81.2557H38V98.5075H49.8277ZM65.9739 97.3492C65.3964 98.2364 63.965 98.8526 62.5336 98.8526C60.0726 98.8526 58.3399 97.3245 58.3399 95.1804C58.3399 92.7405 60.2735 91.2864 63.4627 91.2864C64.4923 91.2864 65.5219 91.5082 65.9237 91.73V90.8674C65.9237 89.5859 65.1703 88.8465 63.8896 88.8465C62.8098 88.8465 62.1318 89.3641 61.8556 90.0048L58.6915 89.7584C59.3946 87.6142 61.3533 86.382 64.0905 86.382C67.2797 86.382 69.0627 88.0579 69.0627 91.0646V98.5075H66.0744V97.3492H65.9739ZM63.4383 96.437C62.2329 96.437 61.5298 95.8456 61.5298 94.9337C61.5298 94.0218 62.3585 93.4303 63.815 93.4303C64.7441 93.4303 65.623 93.6521 65.9746 93.9479V94.7119C65.9746 95.6238 64.7943 96.437 63.4383 96.437ZM81.0917 94.9339C81.0917 97.3245 79.1079 98.8772 76.1698 98.8772C73.5833 98.8772 71.6999 97.6942 71.047 95.624L73.96 95.0818C74.2111 95.9937 75.1402 96.5852 76.2451 96.5852C77.3249 96.5852 77.9527 96.0183 77.9527 95.1557C77.9527 94.2166 76.8777 94.0016 75.6085 93.7477C73.7803 93.382 71.5492 92.9357 71.5492 90.1281C71.5492 87.8853 73.4075 86.382 76.1447 86.382C78.6056 86.382 80.5141 87.5896 81.0164 89.3887L78.0783 90.0049C77.9276 89.2408 77.1743 88.7233 76.22 88.7233C75.2407 88.7233 74.6882 89.2408 74.6882 89.9063C74.6882 90.86 75.7734 91.0786 77.0503 91.3358C78.8752 91.7034 81.0917 92.15 81.0917 94.9339ZM88.3498 98.7539C89.2538 98.7539 89.9821 98.606 90.409 98.4335L90.0825 95.969C89.8063 96.0922 89.4547 96.1908 88.9776 96.1908C87.7974 96.1908 87.1947 95.6979 87.1947 94.1206V89.3887H90.2834V86.7516H87.1947V83.0301L84.0306 83.6463V86.7516H81.9714V89.3887H84.0306V94.6135C84.0306 97.7188 85.8386 98.7539 88.3498 98.7539ZM95.2796 81.2554V84.2375H92.1155V81.2554H95.2796ZM95.2796 98.5073V86.7514H92.1155V98.5073H95.2796ZM109.066 95.0818C108.338 97.5217 106.354 98.8772 103.667 98.8772C99.9504 98.8772 97.4644 96.2894 97.4644 92.6173C97.4644 88.7726 100.151 86.382 103.491 86.382C106.58 86.382 108.539 87.8114 109.217 90.4978L106.153 90.9167C105.801 89.783 104.897 89.1176 103.567 89.1176C101.683 89.1176 100.628 90.5717 100.628 92.6419C100.628 94.6875 101.683 96.1662 103.567 96.1662C104.897 96.1662 105.751 95.4515 106.103 94.3424L109.066 95.0818ZM115.47 98.8772C118.408 98.8772 120.391 97.3245 120.391 94.9339C120.391 92.15 118.175 91.7034 116.35 91.3358C115.073 91.0786 113.988 90.86 113.988 89.9063C113.988 89.2408 114.54 88.7233 115.52 88.7233C116.474 88.7233 117.227 89.2408 117.378 90.0049L120.316 89.3887C119.814 87.5896 117.905 86.382 115.444 86.382C112.707 86.382 110.849 87.8853 110.849 90.1281C110.849 92.9357 113.08 93.382 114.908 93.7477C116.177 94.0016 117.252 94.2166 117.252 95.1557C117.252 96.0183 116.625 96.5852 115.545 96.5852C114.44 96.5852 113.511 95.9937 113.26 95.0818L110.347 95.624C111 97.6942 112.883 98.8772 115.47 98.8772ZM133.401 95.5994C132.396 97.7682 130.613 98.8772 128.152 98.8772C124.436 98.8772 121.799 96.2648 121.799 92.6666C121.799 89.093 124.335 86.382 127.851 86.382C131.241 86.382 133.853 88.7233 133.878 92.7651V93.5045H125.013C125.315 95.205 126.52 96.3387 128.177 96.3387C129.358 96.3387 130.262 95.7965 130.764 94.86L133.401 95.5994ZM130.587 91.3851H125.037C125.364 89.6353 126.419 88.7727 127.9 88.7727C129.306 88.7727 130.487 89.6106 130.587 91.3851ZM143.218 97.3492C142.64 98.2364 141.209 98.8526 139.777 98.8526C137.316 98.8526 135.584 97.3245 135.584 95.1804C135.584 92.7405 137.517 91.2864 140.706 91.2864C141.736 91.2864 142.766 91.5082 143.167 91.73V90.8674C143.167 89.5859 142.414 88.8465 141.133 88.8465C140.054 88.8465 139.376 89.3641 139.099 90.0048L135.935 89.7584C136.638 87.6142 138.597 86.382 141.334 86.382C144.523 86.382 146.306 88.0579 146.306 91.0646V98.5075H143.318V97.3492H143.218ZM140.682 96.437C139.477 96.437 138.773 95.8456 138.773 94.9337C138.773 94.0218 139.602 93.4303 141.059 93.4303C141.988 93.4303 142.867 93.6521 143.218 93.9479V94.7119C143.218 95.6238 142.038 96.437 140.682 96.437ZM152.16 93.2333V98.5075H148.996V86.7516H151.934V88.6493H151.984C152.587 87.3184 153.792 86.5544 155.173 86.5544C155.575 86.5544 155.901 86.6284 156.077 86.7269V89.709C155.851 89.6105 155.5 89.5612 155.198 89.5612C153.466 89.5612 152.16 90.473 152.16 93.2333ZM163.258 98.8772C165.945 98.8772 167.929 97.5217 168.657 95.0818L165.694 94.3424C165.342 95.4515 164.488 96.1662 163.157 96.1662C161.274 96.1662 160.219 94.6875 160.219 92.6419C160.219 90.5717 161.274 89.1176 163.157 89.1176C164.488 89.1176 165.392 89.783 165.744 90.9167L168.808 90.4978C168.13 87.8114 166.171 86.382 163.082 86.382C159.742 86.382 157.055 88.7726 157.055 92.6173C157.055 96.2894 159.541 98.8772 163.258 98.8772ZM173.804 91.7543V98.5072H170.64V81.2554H173.804V88.0575C174.432 87.1703 175.788 86.3816 177.294 86.3816C179.881 86.3816 181.488 88.1068 181.488 90.9903V98.5072H178.324V91.5572C178.324 89.9306 177.596 89.1173 176.315 89.1173C174.934 89.1173 173.804 90.177 173.804 91.7543Z" fill="#343741"/>
</svg>
