<?xml version="1.0" encoding="UTF-8" standalone="no"?>
<!-- Created with Inkscape (http://www.inkscape.org/) -->

<svg
   width="296.9696mm"
   height="140.9156mm"
   viewBox="0 0 296.9696 140.9156"
   version="1.1"
   id="svg5"
   inkscape:version="1.1 (c4e8f9ed74, 2021-05-24)"
   sodipodi:docname="sphinx-needs-enterprise-content.svg"
   inkscape:export-filename="/home/daniel/workspace/sphinx/sphinx-needs-enterprise/docs/_static/sphinx-needs-enterprise-content.png"
   inkscape:export-xdpi="90"
   inkscape:export-ydpi="90"
   xmlns:inkscape="http://www.inkscape.org/namespaces/inkscape"
   xmlns:sodipodi="http://sodipodi.sourceforge.net/DTD/sodipodi-0.dtd"
   xmlns="http://www.w3.org/2000/svg"
   xmlns:svg="http://www.w3.org/2000/svg">
  <sodipodi:namedview
     id="namedview7"
     pagecolor="#ffffff"
     bordercolor="#666666"
     borderopacity="1.0"
     inkscape:pageshadow="2"
     inkscape:pageopacity="0.0"
     inkscape:pagecheckerboard="0"
     inkscape:document-units="mm"
     showgrid="false"
     inkscape:zoom="0.80087682"
     inkscape:cx="300.92018"
     inkscape:cy="259.09103"
     inkscape:window-width="2560"
     inkscape:window-height="1388"
     inkscape:window-x="0"
     inkscape:window-y="0"
     inkscape:window-maximized="1"
     inkscape:current-layer="layer1"
     fit-margin-top="0"
     fit-margin-left="0"
     fit-margin-right="0"
     fit-margin-bottom="0" />
  <defs
     id="defs2" />
  <g
     inkscape:label="Layer 1"
     inkscape:groupmode="layer"
     id="layer1"
     transform="translate(-12.241198,-79.943412)">
    <rect
       style="opacity:1;fill:#000000;fill-opacity:0.302385;stroke:#000000;stroke-width:1.66498;stroke-linejoin:round;paint-order:fill markers stroke"
       id="rect932-92"
       width="295.30463"
       height="139.25063"
       x="13.073688"
       y="80.775902"
       ry="7.0801263"
       rx="7.0801268" />
    <path
       class="st0"
       d="m 264.3948,127.41713 h 8.37942 V 138.7522 H 261.4358 v -8.37694 l -1.61978,-1.61929 v 10.566 l -8.19337,8.19095 c -1.38574,-0.90117 -3.26391,-0.7447 -4.47838,0.4694 -1.3946,1.39419 -1.3946,3.66298 0,5.05716 1.39461,1.39419 3.66406,1.39419 5.05866,0 1.21446,-1.2141 1.37098,-3.09171 0.46955,-4.47704 l 8.19337,-8.19095 h 13.52814 v -14.57365 h -11.61896 z m -13.24169,24.57284 c -0.8158,0.81555 -2.14322,0.81555 -2.95901,0 -0.81579,-0.81555 -0.81579,-2.14258 0,-2.95813 0.81579,-0.81555 2.14321,-0.81555 2.95901,0 0.81579,0.81555 0.81579,2.14258 0,2.95813 z"
       id="path4"
       style="fill:#2a639a;fill-opacity:1;stroke:#000000;stroke-width:0.264584" />
    <path
       class="st1"
       d="m 243.92171,109.94292 h 11.33842 v 11.33506 h -8.37942 l -1.61977,1.6193 h 10.60457 l 8.24136,8.23892 c -0.90143,1.38533 -0.74492,3.26294 0.46955,4.47704 1.3946,1.39419 3.66405,1.39419 5.05865,0 1.39461,-1.39418 1.39461,-3.66297 0,-5.05716 -1.21446,-1.2141 -3.09263,-1.37057 -4.47837,-0.4694 l -8.27606,-8.27361 v -13.48945 h -14.57871 v 11.61553 l 1.61978,-1.6193 z m 24.6628,21.66268 c 0.81579,0.81555 0.81579,2.14258 0,2.95813 -0.81579,0.81555 -2.14321,0.81555 -2.95901,0 -0.81579,-0.81555 -0.81579,-2.14258 0,-2.95813 0.81654,-0.81555 2.14322,-0.81555 2.95901,0 z"
       id="path6"
       style="fill:#4d4d4d;fill-opacity:1;stroke:#000000;stroke-width:0.264584" />
    <path
       class="st0"
       d="m 224.86979,140.32352 h 11.61897 l -1.61978,-1.6193 h -8.37942 v -11.33506 h 11.33843 v 8.37693 l 1.61977,1.6193 v -10.56601 l 8.19337,-8.19095 c 1.38574,0.90117 3.26392,0.7447 4.47838,-0.4694 1.3946,-1.39419 1.3946,-3.66297 0,-5.05716 -1.3946,-1.39419 -3.66406,-1.39419 -5.05866,0 -1.21446,1.2141 -1.37098,3.09172 -0.46954,4.47705 l -8.19264,8.19094 h -13.52888 z m 23.24162,-26.19213 c 0.8158,-0.81556 2.14322,-0.81556 2.95901,0 0.81579,0.81555 0.81579,2.14257 0,2.95812 -0.81579,0.81556 -2.14321,0.81556 -2.95901,0 -0.81579,-0.81555 -0.81579,-2.14257 0,-2.95812 z"
       id="path8"
       style="fill:#2a639a;fill-opacity:1;stroke:#000000;stroke-width:0.264584" />
    <path
       class="st1"
       d="m 255.34281,156.17844 h -11.33842 v -11.33507 h 8.37942 l 1.61977,-1.61929 h -10.60457 l -8.24063,-8.23818 c 0.90144,-1.38534 0.74492,-3.26295 -0.46954,-4.47705 -1.3946,-1.39419 -3.66406,-1.39419 -5.05866,0 -1.3946,1.39419 -1.3946,3.66297 0,5.05716 1.21447,1.2141 3.09264,1.37057 4.47838,0.4694 l 8.27606,8.27361 v 13.48945 h 14.57797 v -11.61553 l -1.61978,1.6193 z m -24.6628,-21.66269 c -0.81579,-0.81555 -0.81579,-2.14257 0,-2.95812 0.81579,-0.81556 2.14321,-0.81556 2.95901,0 0.81579,0.81555 0.81579,2.14257 0,2.95812 -0.81654,0.81556 -2.14322,0.81556 -2.95901,0 z"
       id="path10"
       style="fill:#4d4d4d;fill-opacity:1;stroke:#000000;stroke-width:0.264584" />
    <path
       class="st1"
       d="m 208.65063,171.52188 c 0,0.87681 -0.44592,1.31522 -1.33628,1.31522 h -4.05091 c -0.8911,0 -1.33628,-0.43841 -1.33628,-1.31522 v -2.28281 h 2.30416 v 1.78831 h 2.11516 v -1.68276 l -3.69285,-2.17727 c -0.48431,-0.2871 -0.72573,-0.67311 -0.72573,-1.15727 V 163.528 c 0,-0.87608 0.45256,-1.31448 1.35695,-1.31448 h 4.00883 c 0.89036,0 1.33628,0.4384 1.33628,1.31448 v 2.13519 h -2.28348 v -1.6407 h -2.11516 v 1.5359 l 3.68251,2.1566 c 0.49096,0.28046 0.7368,0.67311 0.7368,1.17794 z"
       id="path14"
       style="fill:#2a639a;fill-opacity:1;stroke:#000000;stroke-width:0.264584" />
    <path
       class="st1"
       d="m 217.42576,170.70116 c 0,0.86279 -0.30859,1.46578 -0.92579,1.80898 -0.44887,0.24577 -1.12956,0.36829 -2.04133,0.36829 -0.21041,0 -0.5072,-0.007 -0.88888,-0.0207 -0.38243,-0.014 -0.65781,-0.0207 -0.82613,-0.0207 v 3.88143 h -2.40973 v -14.50575 h 2.40973 v 0.38896 c 0.56109,-0.0841 1.12217,-0.17197 1.68326,-0.26275 0.70801,-0.11219 1.2691,-0.16828 1.68327,-0.16828 0.87633,0 1.31487,0.43103 1.31487,1.29381 v 7.23664 z m -2.42006,-0.66277 v -5.81662 l -2.26207,0.0421 v 6.57386 h 1.49426 c 0.51163,0 0.76781,-0.2657 0.76781,-0.79931 z"
       id="path16"
       style="fill:#2a639a;fill-opacity:1;stroke:#000000;stroke-width:0.264584" />
    <path
       class="st1"
       d="m 226.22157,172.83636 h -2.42007 v -8.61459 l -2.26207,0.0421 v 8.57252 h -2.40973 v -16.4616 h 2.40973 v 6.22698 c 0.56109,-0.0841 1.12218,-0.17197 1.68327,-0.26275 0.708,-0.11219 1.26909,-0.16828 1.68326,-0.16828 0.87634,0 1.31487,0.43103 1.31487,1.29381 v 9.37184 z"
       id="path18"
       style="fill:#2a639a;fill-opacity:1;stroke:#000000;stroke-width:0.264584" />
    <path
       class="st1"
       d="M 230.39873,160.68796 H 227.989 v -2.48208 h 2.40973 z m -0.0214,12.1484 h -2.36765 v -10.62358 h 2.36765 z"
       id="path20"
       style="fill:#2a639a;fill-opacity:1;stroke:#000000;stroke-width:0.264584" />
    <path
       class="st1"
       d="m 239.25802,172.83636 h -2.42006 v -8.61459 l -2.26207,0.0421 v 8.57252 h -2.40973 v -10.62358 h 2.40973 v 0.38896 c 0.56108,-0.0908 1.11848,-0.17861 1.67293,-0.26275 0.68733,-0.11219 1.25211,-0.16828 1.69434,-0.16828 0.87633,0 1.31486,0.43103 1.31486,1.29381 z"
       id="path22"
       style="fill:#2a639a;fill-opacity:1;stroke:#000000;stroke-width:0.264584" />
    <path
       class="st1"
       d="m 248.09591,172.83636 h -2.60906 l -1.27279,-3.33454 -1.31487,3.33454 h -2.56698 v -0.0421 l 2.56698,-5.42766 -2.32556,-5.15385 h 2.48282 l 1.15761,3.08212 1.21003,-3.08212 h 2.4304 v 0.0421 l -2.32556,5.09111 z"
       id="path24"
       style="fill:#2a639a;fill-opacity:1;stroke:#000000;stroke-width:0.264584" />
    <path
       class="st0"
       d="m 254.12466,168.60287 h -5.01879 v -2.19867 h 5.01879 z"
       id="path26"
       style="fill:#2a639a;fill-opacity:1;stroke:#000000;stroke-width:0.264584" />
    <path
       class="st0"
       d="m 262.90053,172.83636 h -2.42006 v -8.61459 l -2.26208,0.0421 v 8.57252 h -2.40972 v -10.62358 h 2.40972 v 0.38896 c 0.56109,-0.0908 1.11849,-0.17861 1.67294,-0.26275 0.68733,-0.11219 1.25211,-0.16828 1.69434,-0.16828 0.87633,0 1.3156,0.43103 1.3156,1.29381 v 9.37184 z"
       id="path28"
       style="fill:#2a639a;fill-opacity:1;stroke:#000000;stroke-width:0.264584" />
    <path
       class="st0"
       d="m 271.49627,171.52188 c 0,0.87681 -0.45257,1.31522 -1.35695,1.31522 h -4.15575 c -0.90513,0 -1.35695,-0.43841 -1.35695,-1.31522 v -7.99462 c 0,-0.87607 0.45256,-1.31448 1.35695,-1.31448 h 4.15575 c 0.90512,0 1.35695,0.43841 1.35695,1.31448 v 3.9021 l -0.66298,0.66278 h -3.90325 v 2.97658 h 2.26207 v -1.76691 h 2.30416 z m -2.30416,-4.99664 v -2.54555 h -2.26207 v 2.54555 z"
       id="path30"
       style="fill:#2a639a;fill-opacity:1;stroke:#000000;stroke-width:0.264584" />
    <path
       class="st0"
       d="m 280.11341,171.52188 c 0,0.87681 -0.45256,1.31522 -1.35695,1.31522 h -4.15575 c -0.90512,0 -1.35695,-0.43841 -1.35695,-1.31522 v -7.99462 c 0,-0.87607 0.45256,-1.31448 1.35695,-1.31448 h 4.15575 c 0.90512,0 1.35695,0.43841 1.35695,1.31448 v 3.9021 l -0.66297,0.66278 h -3.90326 v 2.97658 h 2.26207 v -1.76691 h 2.30416 z m -2.30416,-4.99664 v -2.54555 h -2.26207 v 2.54555 z"
       id="path32"
       style="fill:#2a639a;fill-opacity:1;stroke:#000000;stroke-width:0.264584" />
    <path
       class="st0"
       d="m 288.90995,172.83636 h -2.39865 v -0.36829 c -1.62716,0.28784 -2.53967,0.43102 -2.73531,0.43102 -0.60317,0 -1.07641,-0.17713 -1.42044,-0.5314 -0.34404,-0.35426 -0.51532,-0.83621 -0.51532,-1.44659 v -6.57386 c 0,-0.86279 0.3086,-1.46209 0.9258,-1.79864 0.44887,-0.25242 1.12956,-0.37863 2.04133,-0.37863 0.20302,0 0.49833,0.007 0.88371,0.0207 0.38538,0.014 0.65928,0.0207 0.82096,0.0207 v -5.83803 h 2.39866 v 16.46308 z m -2.39939,-2.07172 v -6.54287 h -1.4832 c -0.53303,0 -0.79955,0.26644 -0.79955,0.79931 v 5.08004 c 0,0.51886 0.25249,0.77865 0.75747,0.77865 0.11886,7.4e-4 0.62754,-0.0384 1.52528,-0.11513 z"
       id="path34"
       style="fill:#2a639a;fill-opacity:1;stroke:#000000;stroke-width:0.264584" />
    <path
       class="st0"
       d="m 297.33736,171.52188 c 0,0.87681 -0.44518,1.31522 -1.33628,1.31522 h -4.05091 c -0.8911,0 -1.33628,-0.43841 -1.33628,-1.31522 v -2.28281 h 2.30415 v 1.78831 h 2.11516 v -1.68276 l -3.69285,-2.17727 c -0.48431,-0.2871 -0.72572,-0.67311 -0.72572,-1.15727 V 163.528 c 0,-0.87608 0.45256,-1.31448 1.35695,-1.31448 h 4.00883 c 0.89036,0 1.33627,0.4384 1.33627,1.31448 v 2.13519 h -2.28348 v -1.6407 h -2.11516 v 1.5359 l 3.68252,2.1566 c 0.49095,0.28046 0.7368,0.67311 0.7368,1.17794 z"
       id="path36"
       style="fill:#2a639a;fill-opacity:1;stroke:#000000;stroke-width:0.264584" />
    <text
       xml:space="preserve"
       style="font-style:normal;font-variant:normal;font-weight:bold;font-stretch:normal;font-size:14.0915px;line-height:0.95;font-family:sans-serif;-inkscape-font-specification:'sans-serif, Bold';font-variant-ligatures:normal;font-variant-caps:normal;font-variant-numeric:normal;font-variant-east-asian:normal;letter-spacing:0px;word-spacing:0px;fill:#4d4d4d;fill-opacity:1;stroke:#000000;stroke-width:0.264581"
       x="214.02361"
       y="184.01466"
       id="text2117"
       transform="scale(0.97679961,1.0237514)"><tspan
         sodipodi:role="line"
         id="tspan2115"
         x="214.02361"
         y="184.01466"
         style="font-style:normal;font-variant:normal;font-weight:bold;font-stretch:normal;font-size:14.0915px;font-family:sans-serif;-inkscape-font-specification:'sans-serif, Bold';font-variant-ligatures:normal;font-variant-caps:normal;font-variant-numeric:normal;font-variant-east-asian:normal;fill:#4d4d4d;fill-opacity:1;stroke:#000000;stroke-width:0.264581">Enterprise</tspan></text>
    <g
       id="g2707"
       transform="translate(0,3.1750001)">
      <rect
         style="fill:#e6e6e6;stroke:#000000;stroke-width:1.665;stroke-linejoin:round;paint-order:fill markers stroke"
         id="rect932"
         width="77.878609"
         height="52.512432"
         x="21.557459"
         y="84.752945"
         ry="7.0801268"
         rx="7.0801268" />
      <g
         id="g908"
         transform="matrix(0.04452471,0,0,0.04445758,29.186178,89.537212)"
         style="stroke-width:5.94687">
        <g
           id="g12"
           transform="translate(-313.83,-76.66)"
           style="stroke:#000000;stroke-width:5.94687">
          <path
             class="st0"
             d="m 1159.96,335.36 h 113.5 V 488.94 H 1119.88 V 375.44 L 1097.94,353.5 V 496.66 L 986.96,607.64 c -18.77,-12.21 -44.21,-10.09 -60.66,6.36 -18.89,18.89 -18.89,49.63 0,68.52 18.89,18.89 49.63,18.89 68.52,0 16.45,-16.45 18.57,-41.89 6.36,-60.66 L 1112.16,510.88 H 1295.4 V 313.42 H 1138.02 Z M 980.6,668.3 c -11.05,11.05 -29.03,11.05 -40.08,0 -11.05,-11.05 -11.05,-29.03 0,-40.08 11.05,-11.05 29.03,-11.05 40.08,0 11.05,11.05 11.05,29.03 0,40.08 z"
             id="path4-8"
             style="fill:#2a639a;fill-opacity:1;stroke:#000000;stroke-width:5.94687" />
          <path
             class="st1"
             d="m 882.65,98.6 h 153.58 v 153.58 h -113.5 l -21.94,21.94 h 143.64 l 111.63,111.63 c -12.21,18.77 -10.09,44.21 6.36,60.66 18.89,18.89 49.63,18.89 68.52,0 18.89,-18.89 18.89,-49.63 0,-68.52 -16.45,-16.45 -41.89,-18.57 -60.66,-6.36 l -112.1,-112.1 V 76.66 H 860.71 v 157.38 l 21.94,-21.94 z m 334.06,293.51 c 11.05,11.05 11.05,29.03 0,40.08 -11.05,11.05 -29.03,11.05 -40.08,0 -11.05,-11.05 -11.05,-29.03 0,-40.08 11.06,-11.05 29.03,-11.05 40.08,0 z"
             id="path6-4"
             style="fill:#4895e2;fill-opacity:1;stroke:#000000;stroke-width:5.94687" />
          <path
             class="st0"
             d="M 624.59,510.23 H 781.97 L 760.03,488.29 H 646.53 V 334.71 h 153.58 v 113.5 l 21.94,21.94 V 326.99 L 933.03,216.01 c 18.77,12.21 44.21,10.09 60.66,-6.36 18.89,-18.89 18.89,-49.63 0,-68.52 -18.89,-18.89 -49.63,-18.89 -68.52,0 -16.45,16.45 -18.57,41.89 -6.36,60.66 L 807.84,312.77 H 624.59 Z M 939.4,155.35 c 11.05,-11.05 29.03,-11.05 40.08,0 11.05,11.05 11.05,29.03 0,40.08 -11.05,11.05 -29.03,11.05 -40.08,0 -11.05,-11.05 -11.05,-29.03 0,-40.08 z"
             id="path8-8"
             style="fill:#2a639a;fill-opacity:1;stroke:#000000;stroke-width:5.94687" />
          <path
             class="st1"
             d="M 1037.35,725.05 H 883.77 V 571.47 h 113.5 l 21.94,-21.94 H 875.57 L 763.95,437.91 c 12.21,-18.77 10.09,-44.21 -6.36,-60.66 -18.89,-18.89 -49.63,-18.89 -68.52,0 -18.89,18.89 -18.89,49.63 0,68.52 16.45,16.45 41.89,18.57 60.66,6.36 l 112.1,112.1 V 747 h 197.46 V 589.62 l -21.94,21.94 z M 703.29,431.54 c -11.05,-11.05 -11.05,-29.03 0,-40.08 11.05,-11.05 29.03,-11.05 40.08,0 11.05,11.05 11.05,29.03 0,40.08 -11.06,11.05 -29.03,11.05 -40.08,0 z"
             id="path10-1"
             style="fill:#4895e2;fill-opacity:1;stroke:#000000;stroke-width:5.94687" />
        </g>
        <g
           id="g38"
           transform="translate(-313.83,-76.66)"
           style="stroke:#000000;stroke-width:5.94687">
          <path
             class="st1"
             d="m 404.9,932.94 c 0,11.88 -6.04,17.82 -18.1,17.82 h -54.87 c -12.07,0 -18.1,-5.94 -18.1,-17.82 v -30.93 h 31.21 v 24.23 h 28.65 v -22.8 l -50.02,-29.5 c -6.56,-3.89 -9.83,-9.12 -9.83,-15.68 v -33.63 c 0,-11.87 6.13,-17.81 18.38,-17.81 h 54.3 c 12.06,0 18.1,5.94 18.1,17.81 v 28.93 h -30.93 v -22.23 h -28.65 v 20.81 l 49.88,29.22 c 6.65,3.8 9.98,9.12 9.98,15.96 z"
             id="path14-0"
             style="fill:#4895e2;fill-opacity:1;stroke:#000000;stroke-width:5.94687" />
          <path
             class="st1"
             d="m 523.76,921.82 c 0,11.69 -4.18,19.86 -12.54,24.51 -6.08,3.33 -15.3,4.99 -27.65,4.99 -2.85,0 -6.87,-0.09 -12.04,-0.28 -5.18,-0.19 -8.91,-0.28 -11.19,-0.28 v 52.59 H 427.7 V 806.81 h 32.64 v 5.27 c 7.6,-1.14 15.2,-2.33 22.8,-3.56 9.59,-1.52 17.19,-2.28 22.8,-2.28 11.87,0 17.81,5.84 17.81,17.53 v 98.05 z m -32.78,-8.98 v -78.81 l -30.64,0.57 v 89.07 h 20.24 c 6.93,0 10.4,-3.6 10.4,-10.83 z"
             id="path16-3"
             style="fill:#4895e2;fill-opacity:1;stroke:#000000;stroke-width:5.94687" />
          <path
             class="st1"
             d="M 642.9,950.75 H 610.12 V 834.03 l -30.64,0.57 V 950.75 H 546.84 V 727.71 h 32.64 v 84.37 c 7.6,-1.14 15.2,-2.33 22.8,-3.56 9.59,-1.52 17.19,-2.28 22.8,-2.28 11.87,0 17.81,5.84 17.81,17.53 v 126.98 z"
             id="path18-0"
             style="fill:#4895e2;fill-opacity:1;stroke:#000000;stroke-width:5.94687" />
          <path
             class="st1"
             d="m 699.48,786.15 h -32.64 v -33.63 h 32.64 z m -0.29,164.6 H 667.12 V 806.81 h 32.07 z"
             id="path20-4"
             style="fill:#4895e2;fill-opacity:1;stroke:#000000;stroke-width:5.94687" />
          <path
             class="st1"
             d="M 819.48,950.75 H 786.7 V 834.03 l -30.64,0.57 V 950.75 H 723.42 V 806.81 h 32.64 v 5.27 c 7.6,-1.23 15.15,-2.42 22.66,-3.56 9.31,-1.52 16.96,-2.28 22.95,-2.28 11.87,0 17.81,5.84 17.81,17.53 z"
             id="path22-4"
             style="fill:#4895e2;fill-opacity:1;stroke:#000000;stroke-width:5.94687" />
          <path
             class="st1"
             d="m 939.19,950.75 h -35.34 l -17.24,-45.18 -17.81,45.18 h -34.77 v -0.57 l 34.77,-73.54 -31.5,-69.83 h 33.63 l 15.68,41.76 16.39,-41.76 h 32.92 v 0.57 l -31.5,68.98 z"
             id="path24-4"
             style="fill:#4895e2;fill-opacity:1;stroke:#000000;stroke-width:5.94687" />
          <path
             class="st0"
             d="M 1020.85,893.39 H 952.87 V 863.6 h 67.98 z"
             id="path26-4"
             style="fill:#2a639a;fill-opacity:1;stroke:#000000;stroke-width:5.94687" />
          <path
             class="st0"
             d="m 1139.72,950.75 h -32.78 V 834.03 l -30.64,0.57 v 116.15 h -32.64 V 806.81 h 32.64 v 5.27 c 7.6,-1.23 15.15,-2.42 22.66,-3.56 9.31,-1.52 16.96,-2.28 22.95,-2.28 11.87,0 17.82,5.84 17.82,17.53 v 126.98 z"
             id="path28-7"
             style="fill:#2a639a;fill-opacity:1;stroke:#000000;stroke-width:5.94687" />
          <path
             class="st0"
             d="m 1256.15,932.94 c 0,11.88 -6.13,17.82 -18.38,17.82 h -56.29 c -12.26,0 -18.38,-5.94 -18.38,-17.82 V 824.62 c 0,-11.87 6.13,-17.81 18.38,-17.81 h 56.29 c 12.26,0 18.38,5.94 18.38,17.81 v 52.87 l -8.98,8.98 h -52.87 v 40.33 h 30.64 v -23.94 h 31.21 z m -31.21,-67.7 v -34.49 h -30.64 v 34.49 z"
             id="path30-6"
             style="fill:#2a639a;fill-opacity:1;stroke:#000000;stroke-width:5.94687" />
          <path
             class="st0"
             d="m 1372.87,932.94 c 0,11.88 -6.13,17.82 -18.38,17.82 h -56.29 c -12.26,0 -18.38,-5.94 -18.38,-17.82 V 824.62 c 0,-11.87 6.13,-17.81 18.38,-17.81 h 56.29 c 12.26,0 18.38,5.94 18.38,17.81 v 52.87 l -8.98,8.98 h -52.87 v 40.33 h 30.64 v -23.94 h 31.21 z m -31.21,-67.7 v -34.49 h -30.64 v 34.49 z"
             id="path32-3"
             style="fill:#2a639a;fill-opacity:1;stroke:#000000;stroke-width:5.94687" />
          <path
             class="st0"
             d="m 1492.02,950.75 h -32.49 v -4.99 c -22.04,3.9 -34.4,5.84 -37.05,5.84 -8.17,0 -14.58,-2.4 -19.24,-7.2 -4.66,-4.8 -6.98,-11.33 -6.98,-19.6 v -89.07 c 0,-11.69 4.18,-19.81 12.54,-24.37 6.08,-3.42 15.3,-5.13 27.65,-5.13 2.75,0 6.75,0.1 11.97,0.28 5.22,0.19 8.93,0.28 11.12,0.28 v -79.1 h 32.49 v 223.06 z m -32.5,-28.07 v -88.65 h -20.09 c -7.22,0 -10.83,3.61 -10.83,10.83 v 68.83 c 0,7.03 3.42,10.55 10.26,10.55 1.61,0.01 8.5,-0.52 20.66,-1.56 z"
             id="path34-1"
             style="fill:#2a639a;fill-opacity:1;stroke:#000000;stroke-width:5.94687" />
          <path
             class="st0"
             d="m 1606.17,932.94 c 0,11.88 -6.03,17.82 -18.1,17.82 h -54.87 c -12.07,0 -18.1,-5.94 -18.1,-17.82 v -30.93 h 31.21 v 24.23 h 28.65 v -22.8 l -50.02,-29.5 c -6.56,-3.89 -9.83,-9.12 -9.83,-15.68 v -33.63 c 0,-11.87 6.13,-17.81 18.38,-17.81 h 54.3 c 12.06,0 18.1,5.94 18.1,17.81 v 28.93 h -30.93 v -22.23 h -28.65 v 20.81 l 49.88,29.22 c 6.65,3.8 9.98,9.12 9.98,15.96 z"
             id="path36-7"
             style="fill:#2a639a;fill-opacity:1;stroke:#000000;stroke-width:5.94687" />
        </g>
      </g>
    </g>
    <g
       id="g2685"
       transform="translate(0,3.6102113)">
      <rect
         style="fill:#e6e6e6;stroke:#000000;stroke-width:1.665;stroke-linejoin:round;paint-order:fill markers stroke"
         id="rect932-9"
         width="77.878609"
         height="52.512432"
         x="112.48592"
         y="84.317734"
         ry="7.0801268"
         rx="7.0801268" />
      <text
         xml:space="preserve"
         style="font-size:12.2372px;line-height:1.15;font-family:sans-serif;letter-spacing:0px;word-spacing:0px;stroke-width:0.264582"
         x="152.25551"
         y="107.58662"
         id="text2509"><tspan
           sodipodi:role="line"
           id="tspan2507"
           style="text-align:center;text-anchor:middle;stroke-width:0.264582"
           x="152.25551"
           y="107.58662"
           dy="0.1">Enterprise </tspan><tspan
           sodipodi:role="line"
           style="text-align:center;text-anchor:middle;stroke-width:0.264582"
           x="152.25551"
           y="121.65939"
           id="tspan2511">Features</tspan></text>
    </g>
    <g
       id="g2667"
       transform="translate(0.04766083,3.1750001)">
      <rect
         style="fill:#e6e6e6;stroke:#000000;stroke-width:1.665;stroke-linejoin:round;paint-order:fill markers stroke"
         id="rect932-9-2"
         width="77.878609"
         height="52.512432"
         x="112.43826"
         y="-206.72881"
         ry="7.0801268"
         rx="7.0801268"
         transform="scale(1,-1)" />
      <text
         xml:space="preserve"
         style="font-size:12.2372px;line-height:1.15;font-family:sans-serif;letter-spacing:0px;word-spacing:0px;stroke-width:0.264582"
         x="152.22958"
         y="178.06592"
         id="text2509-4"><tspan
           sodipodi:role="line"
           id="tspan2507-7"
           style="text-align:center;text-anchor:middle;stroke-width:0.264582"
           x="152.22958"
           y="178.06592"
           dy="0.1">Enterprise </tspan><tspan
           sodipodi:role="line"
           style="text-align:center;text-anchor:middle;stroke-width:0.264582"
           x="152.22958"
           y="192.1387"
           id="tspan2511-5">Support</tspan></text>
    </g>
    <g
       id="g2661"
       transform="translate(-1.2213383,2.476117)">
      <rect
         style="fill:#e6e6e6;stroke:#000000;stroke-width:1.665;stroke-linejoin:round;paint-order:fill markers stroke"
         id="rect932-9-2-4"
         width="77.878609"
         height="52.512432"
         x="22.778797"
         y="-207.42769"
         ry="7.0801268"
         rx="7.0801268"
         transform="scale(1,-1)" />
      <text
         xml:space="preserve"
         style="font-size:12.2372px;line-height:1.15;font-family:sans-serif;letter-spacing:0px;word-spacing:0px;stroke-width:0.264582"
         x="62.57011"
         y="178.7648"
         id="text2509-4-8"><tspan
           sodipodi:role="line"
           id="tspan2507-7-1"
           style="text-align:center;text-anchor:middle;stroke-width:0.264582"
           x="62.57011"
           y="178.7648"
           dy="0.1">Enterprise </tspan><tspan
           sodipodi:role="line"
           style="text-align:center;text-anchor:middle;stroke-width:0.264582"
           x="62.57011"
           y="192.83759"
           id="tspan2511-5-0">Services</tspan></text>
    </g>
  </g>
  <style
     type="text/css"
     id="style2">
	.st0{fill:#00A9DD;}
	.st1{fill:#0094D4;}
</style>
  <style
     type="text/css"
     id="style2-9">
	.st0{fill:#00A9DD;}
	.st1{fill:#0094D4;}
</style>
</svg>
