<?xml version="1.0" encoding="UTF-8" standalone="no"?>
<!-- Created with Inkscape (http://www.inkscape.org/) -->

<svg
   width="296.9696mm"
   height="140.9156mm"
   viewBox="0 0 296.9696 140.9156"
   version="1.1"
   id="svg5"
   inkscape:version="1.1 (c4e8f9ed74, 2021-05-24)"
   sodipodi:docname="sphinx-needs-enterprise-content.svg"
   inkscape:export-filename="/home/daniel/workspace/sphinx/sphinx-needs-enterprise/docs/_static/sphinx-needs-enterprise-content.png"
   inkscape:export-xdpi="90"
   inkscape:export-ydpi="90"
   xmlns:inkscape="http://www.inkscape.org/namespaces/inkscape"
   xmlns:sodipodi="http://sodipodi.sourceforge.net/DTD/sodipodi-0.dtd"
   xmlns="http://www.w3.org/2000/svg"
   xmlns:svg="http://www.w3.org/2000/svg">
  <sodipodi:namedview
     id="namedview7"
     pagecolor="#ffffff"
     bordercolor="#666666"
     borderopacity="1.0"
     inkscape:pageshadow="2"
     inkscape:pageopacity="0.0"
     inkscape:pagecheckerboard="0"
     inkscape:document-units="mm"
     showgrid="false"
     inkscape:zoom="0.80087682"
     inkscape:cx="300.92018"
     inkscape:cy="259.09103"
     inkscape:window-width="2560"
     inkscape:window-height="1388"
     inkscape:window-x="0"
     inkscape:window-y="0"
     inkscape:window-maximized="1"
     inkscape:current-layer="layer1"
     fit-margin-top="0"
     fit-margin-left="0"
     fit-margin-right="0"
     fit-margin-bottom="0" />
  <defs
     id="defs2" />
  <g
     inkscape:label="Layer 1"
     inkscape:groupmode="layer"
     id="layer1"
     transform="translate(-12.241198,-79.943412)">
    <rect
       style="opacity:1;fill:#000000;fill-opacity:0.302385;stroke:#000000;stroke-width:1.66498;stroke-linejoin:round;paint-order:fill markers stroke"
       id="rect932-92"
       width="295.30463"
       height="139.25063"
       x="13.073688"
       y="80.775902"
       ry="7.0801263"
       rx="7.0801268" />
    <g
       id="g865"
       transform="matrix(0.07382747,0,0,0.0738056,201.89025,108.28672)"
       style="stroke-width:3.58434">
      <path
         class="st0"
         d="m 846.63,259.2 h 113.5 V 412.78 H 806.55 V 299.28 L 784.61,277.34 V 420.5 L 673.63,531.48 c -18.77,-12.21 -44.21,-10.09 -60.66,6.36 -18.89,18.89 -18.89,49.63 0,68.52 18.89,18.89 49.63,18.89 68.52,0 16.45,-16.45 18.57,-41.89 6.36,-60.66 L 798.83,434.72 H 982.07 V 237.26 H 824.69 Z M 667.27,592.14 c -11.05,11.05 -29.03,11.05 -40.08,0 -11.05,-11.05 -11.05,-29.03 0,-40.08 11.05,-11.05 29.03,-11.05 40.08,0 11.05,11.05 11.05,29.03 0,40.08 z"
         id="path4"
         style="fill:#2a639a;fill-opacity:1;stroke:#000000;stroke-width:3.58434" />
      <path
         class="st1"
         d="M 569.32,22.44 H 722.9 V 176.02 H 609.4 l -21.94,21.94 H 731.1 l 111.63,111.63 c -12.21,18.77 -10.09,44.21 6.36,60.66 18.89,18.89 49.63,18.89 68.52,0 18.89,-18.89 18.89,-49.63 0,-68.52 -16.45,-16.45 -41.89,-18.57 -60.66,-6.36 L 744.85,183.27 V 0.5 H 547.38 v 157.38 l 21.94,-21.94 z m 334.06,293.51 c 11.05,11.05 11.05,29.03 0,40.08 -11.05,11.05 -29.03,11.05 -40.08,0 -11.05,-11.05 -11.05,-29.03 0,-40.08 11.06,-11.05 29.03,-11.05 40.08,0 z"
         id="path6"
         style="fill:#4d4d4d;fill-opacity:1;stroke:#000000;stroke-width:3.58434" />
      <path
         class="st0"
         d="M 311.26,434.07 H 468.64 L 446.7,412.13 H 333.2 V 258.55 h 153.58 v 113.5 l 21.94,21.94 V 250.83 L 619.7,139.85 c 18.77,12.21 44.21,10.09 60.66,-6.36 18.89,-18.89 18.89,-49.63 0,-68.52 -18.89,-18.89 -49.63,-18.89 -68.52,0 -16.45,16.45 -18.57,41.89 -6.36,60.66 L 494.51,236.61 H 311.26 Z M 626.07,79.19 c 11.05,-11.05 29.03,-11.05 40.08,0 11.05,11.05 11.05,29.03 0,40.08 -11.05,11.05 -29.03,11.05 -40.08,0 -11.05,-11.05 -11.05,-29.03 0,-40.08 z"
         id="path8"
         style="fill:#2a639a;fill-opacity:1;stroke:#000000;stroke-width:3.58434" />
      <path
         class="st1"
         d="M 724.02,648.89 H 570.44 V 495.31 h 113.5 l 21.94,-21.94 H 562.24 L 450.62,361.75 c 12.21,-18.77 10.09,-44.21 -6.36,-60.66 -18.89,-18.89 -49.63,-18.89 -68.52,0 -18.89,18.89 -18.89,49.63 0,68.52 16.45,16.45 41.89,18.57 60.66,6.36 l 112.1,112.1 V 670.84 H 745.96 V 513.46 L 724.02,535.4 Z M 389.96,355.38 c -11.05,-11.05 -11.05,-29.03 0,-40.08 11.05,-11.05 29.03,-11.05 40.08,0 11.05,11.05 11.05,29.03 0,40.08 -11.06,11.05 -29.03,11.05 -40.08,0 z"
         id="path10"
         style="fill:#666666;fill-opacity:1;stroke:#000000;stroke-width:3.58434" />
      <path
         class="st1"
         d="m 91.57,856.78 c 0,11.88 -6.04,17.82 -18.1,17.82 H 18.6 C 6.53,874.6 0.5,868.66 0.5,856.78 v -30.93 h 31.21 v 24.23 h 28.65 v -22.8 L 10.34,797.78 C 3.78,793.89 0.51,788.66 0.51,782.1 v -33.63 c 0,-11.87 6.13,-17.81 18.38,-17.81 h 54.3 c 12.06,0 18.1,5.94 18.1,17.81 V 777.4 H 60.36 V 755.17 H 31.71 v 20.81 l 49.88,29.22 c 6.65,3.8 9.98,9.12 9.98,15.96 z"
         id="path14"
         style="fill:#2a639a;fill-opacity:1;stroke:#000000;stroke-width:3.58434" />
      <path
         class="st1"
         d="m 210.43,845.66 c 0,11.69 -4.18,19.86 -12.54,24.51 -6.08,3.33 -15.3,4.99 -27.65,4.99 -2.85,0 -6.87,-0.09 -12.04,-0.28 -5.18,-0.19 -8.91,-0.28 -11.19,-0.28 v 52.59 H 114.37 V 730.65 h 32.64 v 5.27 c 7.6,-1.14 15.2,-2.33 22.8,-3.56 9.59,-1.52 17.19,-2.28 22.8,-2.28 11.87,0 17.81,5.84 17.81,17.53 v 98.05 z m -32.78,-8.98 v -78.81 l -30.64,0.57 v 89.07 h 20.24 c 6.93,0 10.4,-3.6 10.4,-10.83 z"
         id="path16"
         style="fill:#2a639a;fill-opacity:1;stroke:#000000;stroke-width:3.58434" />
      <path
         class="st1"
         d="M 329.57,874.59 H 296.79 V 757.87 l -30.64,0.57 V 874.59 H 233.51 V 651.55 h 32.64 v 84.37 c 7.6,-1.14 15.2,-2.33 22.8,-3.56 9.59,-1.52 17.19,-2.28 22.8,-2.28 11.87,0 17.81,5.84 17.81,17.53 v 126.98 z"
         id="path18"
         style="fill:#2a639a;fill-opacity:1;stroke:#000000;stroke-width:3.58434" />
      <path
         class="st1"
         d="m 386.15,709.99 h -32.64 v -33.63 h 32.64 z m -0.29,164.6 H 353.79 V 730.65 h 32.07 z"
         id="path20"
         style="fill:#2a639a;fill-opacity:1;stroke:#000000;stroke-width:3.58434" />
      <path
         class="st1"
         d="M 506.15,874.59 H 473.37 V 757.87 l -30.64,0.57 V 874.59 H 410.09 V 730.65 h 32.64 v 5.27 c 7.6,-1.23 15.15,-2.42 22.66,-3.56 9.31,-1.52 16.96,-2.28 22.95,-2.28 11.87,0 17.81,5.84 17.81,17.53 z"
         id="path22"
         style="fill:#2a639a;fill-opacity:1;stroke:#000000;stroke-width:3.58434" />
      <path
         class="st1"
         d="m 625.86,874.59 h -35.34 l -17.24,-45.18 -17.81,45.18 H 520.7 v -0.57 l 34.77,-73.54 -31.5,-69.83 h 33.63 l 15.68,41.76 16.39,-41.76 h 32.92 v 0.57 l -31.5,68.98 z"
         id="path24"
         style="fill:#2a639a;fill-opacity:1;stroke:#000000;stroke-width:3.58434" />
      <path
         class="st0"
         d="m 707.52,817.23 h -67.98 v -29.79 h 67.98 z"
         id="path26"
         style="fill:#2a639a;fill-opacity:1;stroke:#000000;stroke-width:3.58434" />
      <path
         class="st0"
         d="M 826.39,874.59 H 793.61 V 757.87 l -30.64,0.57 V 874.59 H 730.33 V 730.65 h 32.64 v 5.27 c 7.6,-1.23 15.15,-2.42 22.66,-3.56 9.31,-1.52 16.96,-2.28 22.95,-2.28 11.87,0 17.82,5.84 17.82,17.53 v 126.98 z"
         id="path28"
         style="fill:#2a639a;fill-opacity:1;stroke:#000000;stroke-width:3.58434" />
      <path
         class="st0"
         d="m 942.82,856.78 c 0,11.88 -6.13,17.82 -18.38,17.82 h -56.29 c -12.26,0 -18.38,-5.94 -18.38,-17.82 V 748.46 c 0,-11.87 6.13,-17.81 18.38,-17.81 h 56.29 c 12.26,0 18.38,5.94 18.38,17.81 v 52.87 l -8.98,8.98 h -52.87 v 40.33 h 30.64 V 826.7 h 31.21 z m -31.21,-67.7 v -34.49 h -30.64 v 34.49 z"
         id="path30"
         style="fill:#2a639a;fill-opacity:1;stroke:#000000;stroke-width:3.58434" />
      <path
         class="st0"
         d="m 1059.54,856.78 c 0,11.88 -6.13,17.82 -18.38,17.82 h -56.29 c -12.26,0 -18.38,-5.94 -18.38,-17.82 V 748.46 c 0,-11.87 6.13,-17.81 18.38,-17.81 h 56.29 c 12.26,0 18.38,5.94 18.38,17.81 v 52.87 l -8.98,8.98 h -52.87 v 40.33 h 30.64 V 826.7 h 31.21 z m -31.21,-67.7 v -34.49 h -30.64 v 34.49 z"
         id="path32"
         style="fill:#2a639a;fill-opacity:1;stroke:#000000;stroke-width:3.58434" />
      <path
         class="st0"
         d="m 1178.69,874.59 h -32.49 v -4.99 c -22.04,3.9 -34.4,5.84 -37.05,5.84 -8.17,0 -14.58,-2.4 -19.24,-7.2 -4.66,-4.8 -6.98,-11.33 -6.98,-19.6 v -89.07 c 0,-11.69 4.18,-19.81 12.54,-24.37 6.08,-3.42 15.3,-5.13 27.65,-5.13 2.75,0 6.75,0.1 11.97,0.28 5.22,0.19 8.93,0.28 11.12,0.28 v -79.1 h 32.49 v 223.06 z m -32.5,-28.07 v -88.65 h -20.09 c -7.22,0 -10.83,3.61 -10.83,10.83 v 68.83 c 0,7.03 3.42,10.55 10.26,10.55 1.61,0.01 8.5,-0.52 20.66,-1.56 z"
         id="path34"
         style="fill:#2a639a;fill-opacity:1;stroke:#000000;stroke-width:3.58434" />
      <path
         class="st0"
         d="m 1292.84,856.78 c 0,11.88 -6.03,17.82 -18.1,17.82 h -54.87 c -12.07,0 -18.1,-5.94 -18.1,-17.82 v -30.93 h 31.21 v 24.23 h 28.65 v -22.8 l -50.02,-29.5 c -6.56,-3.89 -9.83,-9.12 -9.83,-15.68 v -33.63 c 0,-11.87 6.13,-17.81 18.38,-17.81 h 54.3 c 12.06,0 18.1,5.94 18.1,17.81 v 28.93 h -30.93 v -22.23 h -28.65 v 20.81 l 49.88,29.22 c 6.65,3.8 9.98,9.12 9.98,15.96 z"
         id="path36"
         style="fill:#2a639a;fill-opacity:1;stroke:#000000;stroke-width:3.58434" />
      <text
         xml:space="preserve"
         style="font-style:normal;font-variant:normal;font-weight:bold;font-stretch:normal;font-size:190.899px;line-height:0.95;font-family:sans-serif;-inkscape-font-specification:'sans-serif, Bold';font-variant-ligatures:normal;font-variant-caps:normal;font-variant-numeric:normal;font-variant-east-asian:normal;letter-spacing:0px;word-spacing:0px;fill:#4d4d4d;fill-opacity:1;stroke:#000000;stroke-width:3.5843"
         x="99.410973"
         y="1059.9283"
         id="text2117"
         transform="scale(0.97665491,1.0239031)"><tspan
           sodipodi:role="line"
           id="tspan2115"
           x="99.410973"
           y="1059.9283"
           style="font-style:normal;font-variant:normal;font-weight:bold;font-stretch:normal;font-size:190.899px;font-family:sans-serif;-inkscape-font-specification:'sans-serif, Bold';font-variant-ligatures:normal;font-variant-caps:normal;font-variant-numeric:normal;font-variant-east-asian:normal;fill:#4d4d4d;fill-opacity:1;stroke:#000000;stroke-width:3.5843">Enterprise</tspan></text>
    </g>
    <g
       id="g2707"
       transform="translate(0,3.1750001)">
      <rect
         style="fill:#e6e6e6;stroke:#000000;stroke-width:1.665;stroke-linejoin:round;paint-order:fill markers stroke"
         id="rect932"
         width="77.878609"
         height="52.512432"
         x="21.557459"
         y="84.752945"
         ry="7.0801268"
         rx="7.0801268" />
      <g
         id="g908"
         transform="matrix(0.04452471,0,0,0.04445758,29.186178,89.537212)"
         style="stroke-width:5.94687">
        <g
           id="g12"
           transform="translate(-313.83,-76.66)"
           style="stroke:#000000;stroke-width:5.94687">
          <path
             class="st0"
             d="m 1159.96,335.36 h 113.5 V 488.94 H 1119.88 V 375.44 L 1097.94,353.5 V 496.66 L 986.96,607.64 c -18.77,-12.21 -44.21,-10.09 -60.66,6.36 -18.89,18.89 -18.89,49.63 0,68.52 18.89,18.89 49.63,18.89 68.52,0 16.45,-16.45 18.57,-41.89 6.36,-60.66 L 1112.16,510.88 H 1295.4 V 313.42 H 1138.02 Z M 980.6,668.3 c -11.05,11.05 -29.03,11.05 -40.08,0 -11.05,-11.05 -11.05,-29.03 0,-40.08 11.05,-11.05 29.03,-11.05 40.08,0 11.05,11.05 11.05,29.03 0,40.08 z"
             id="path4-8"
             style="fill:#2a639a;fill-opacity:1;stroke:#000000;stroke-width:5.94687" />
          <path
             class="st1"
             d="m 882.65,98.6 h 153.58 v 153.58 h -113.5 l -21.94,21.94 h 143.64 l 111.63,111.63 c -12.21,18.77 -10.09,44.21 6.36,60.66 18.89,18.89 49.63,18.89 68.52,0 18.89,-18.89 18.89,-49.63 0,-68.52 -16.45,-16.45 -41.89,-18.57 -60.66,-6.36 l -112.1,-112.1 V 76.66 H 860.71 v 157.38 l 21.94,-21.94 z m 334.06,293.51 c 11.05,11.05 11.05,29.03 0,40.08 -11.05,11.05 -29.03,11.05 -40.08,0 -11.05,-11.05 -11.05,-29.03 0,-40.08 11.06,-11.05 29.03,-11.05 40.08,0 z"
             id="path6-4"
             style="fill:#4895e2;fill-opacity:1;stroke:#000000;stroke-width:5.94687" />
          <path
             class="st0"
             d="M 624.59,510.23 H 781.97 L 760.03,488.29 H 646.53 V 334.71 h 153.58 v 113.5 l 21.94,21.94 V 326.99 L 933.03,216.01 c 18.77,12.21 44.21,10.09 60.66,-6.36 18.89,-18.89 18.89,-49.63 0,-68.52 -18.89,-18.89 -49.63,-18.89 -68.52,0 -16.45,16.45 -18.57,41.89 -6.36,60.66 L 807.84,312.77 H 624.59 Z M 939.4,155.35 c 11.05,-11.05 29.03,-11.05 40.08,0 11.05,11.05 11.05,29.03 0,40.08 -11.05,11.05 -29.03,11.05 -40.08,0 -11.05,-11.05 -11.05,-29.03 0,-40.08 z"
             id="path8-8"
             style="fill:#2a639a;fill-opacity:1;stroke:#000000;stroke-width:5.94687" />
          <path
             class="st1"
             d="M 1037.35,725.05 H 883.77 V 571.47 h 113.5 l 21.94,-21.94 H 875.57 L 763.95,437.91 c 12.21,-18.77 10.09,-44.21 -6.36,-60.66 -18.89,-18.89 -49.63,-18.89 -68.52,0 -18.89,18.89 -18.89,49.63 0,68.52 16.45,16.45 41.89,18.57 60.66,6.36 l 112.1,112.1 V 747 h 197.46 V 589.62 l -21.94,21.94 z M 703.29,431.54 c -11.05,-11.05 -11.05,-29.03 0,-40.08 11.05,-11.05 29.03,-11.05 40.08,0 11.05,11.05 11.05,29.03 0,40.08 -11.06,11.05 -29.03,11.05 -40.08,0 z"
             id="path10-1"
             style="fill:#4895e2;fill-opacity:1;stroke:#000000;stroke-width:5.94687" />
        </g>
        <g
           id="g38"
           transform="translate(-313.83,-76.66)"
           style="stroke:#000000;stroke-width:5.94687">
          <path
             class="st1"
             d="m 404.9,932.94 c 0,11.88 -6.04,17.82 -18.1,17.82 h -54.87 c -12.07,0 -18.1,-5.94 -18.1,-17.82 v -30.93 h 31.21 v 24.23 h 28.65 v -22.8 l -50.02,-29.5 c -6.56,-3.89 -9.83,-9.12 -9.83,-15.68 v -33.63 c 0,-11.87 6.13,-17.81 18.38,-17.81 h 54.3 c 12.06,0 18.1,5.94 18.1,17.81 v 28.93 h -30.93 v -22.23 h -28.65 v 20.81 l 49.88,29.22 c 6.65,3.8 9.98,9.12 9.98,15.96 z"
             id="path14-0"
             style="fill:#4895e2;fill-opacity:1;stroke:#000000;stroke-width:5.94687" />
          <path
             class="st1"
             d="m 523.76,921.82 c 0,11.69 -4.18,19.86 -12.54,24.51 -6.08,3.33 -15.3,4.99 -27.65,4.99 -2.85,0 -6.87,-0.09 -12.04,-0.28 -5.18,-0.19 -8.91,-0.28 -11.19,-0.28 v 52.59 H 427.7 V 806.81 h 32.64 v 5.27 c 7.6,-1.14 15.2,-2.33 22.8,-3.56 9.59,-1.52 17.19,-2.28 22.8,-2.28 11.87,0 17.81,5.84 17.81,17.53 v 98.05 z m -32.78,-8.98 v -78.81 l -30.64,0.57 v 89.07 h 20.24 c 6.93,0 10.4,-3.6 10.4,-10.83 z"
             id="path16-3"
             style="fill:#4895e2;fill-opacity:1;stroke:#000000;stroke-width:5.94687" />
          <path
             class="st1"
             d="M 642.9,950.75 H 610.12 V 834.03 l -30.64,0.57 V 950.75 H 546.84 V 727.71 h 32.64 v 84.37 c 7.6,-1.14 15.2,-2.33 22.8,-3.56 9.59,-1.52 17.19,-2.28 22.8,-2.28 11.87,0 17.81,5.84 17.81,17.53 v 126.98 z"
             id="path18-0"
             style="fill:#4895e2;fill-opacity:1;stroke:#000000;stroke-width:5.94687" />
          <path
             class="st1"
             d="m 699.48,786.15 h -32.64 v -33.63 h 32.64 z m -0.29,164.6 H 667.12 V 806.81 h 32.07 z"
             id="path20-4"
             style="fill:#4895e2;fill-opacity:1;stroke:#000000;stroke-width:5.94687" />
          <path
             class="st1"
             d="M 819.48,950.75 H 786.7 V 834.03 l -30.64,0.57 V 950.75 H 723.42 V 806.81 h 32.64 v 5.27 c 7.6,-1.23 15.15,-2.42 22.66,-3.56 9.31,-1.52 16.96,-2.28 22.95,-2.28 11.87,0 17.81,5.84 17.81,17.53 z"
             id="path22-4"
             style="fill:#4895e2;fill-opacity:1;stroke:#000000;stroke-width:5.94687" />
          <path
             class="st1"
             d="m 939.19,950.75 h -35.34 l -17.24,-45.18 -17.81,45.18 h -34.77 v -0.57 l 34.77,-73.54 -31.5,-69.83 h 33.63 l 15.68,41.76 16.39,-41.76 h 32.92 v 0.57 l -31.5,68.98 z"
             id="path24-4"
             style="fill:#4895e2;fill-opacity:1;stroke:#000000;stroke-width:5.94687" />
          <path
             class="st0"
             d="M 1020.85,893.39 H 952.87 V 863.6 h 67.98 z"
             id="path26-4"
             style="fill:#2a639a;fill-opacity:1;stroke:#000000;stroke-width:5.94687" />
          <path
             class="st0"
             d="m 1139.72,950.75 h -32.78 V 834.03 l -30.64,0.57 v 116.15 h -32.64 V 806.81 h 32.64 v 5.27 c 7.6,-1.23 15.15,-2.42 22.66,-3.56 9.31,-1.52 16.96,-2.28 22.95,-2.28 11.87,0 17.82,5.84 17.82,17.53 v 126.98 z"
             id="path28-7"
             style="fill:#2a639a;fill-opacity:1;stroke:#000000;stroke-width:5.94687" />
          <path
             class="st0"
             d="m 1256.15,932.94 c 0,11.88 -6.13,17.82 -18.38,17.82 h -56.29 c -12.26,0 -18.38,-5.94 -18.38,-17.82 V 824.62 c 0,-11.87 6.13,-17.81 18.38,-17.81 h 56.29 c 12.26,0 18.38,5.94 18.38,17.81 v 52.87 l -8.98,8.98 h -52.87 v 40.33 h 30.64 v -23.94 h 31.21 z m -31.21,-67.7 v -34.49 h -30.64 v 34.49 z"
             id="path30-6"
             style="fill:#2a639a;fill-opacity:1;stroke:#000000;stroke-width:5.94687" />
          <path
             class="st0"
             d="m 1372.87,932.94 c 0,11.88 -6.13,17.82 -18.38,17.82 h -56.29 c -12.26,0 -18.38,-5.94 -18.38,-17.82 V 824.62 c 0,-11.87 6.13,-17.81 18.38,-17.81 h 56.29 c 12.26,0 18.38,5.94 18.38,17.81 v 52.87 l -8.98,8.98 h -52.87 v 40.33 h 30.64 v -23.94 h 31.21 z m -31.21,-67.7 v -34.49 h -30.64 v 34.49 z"
             id="path32-3"
             style="fill:#2a639a;fill-opacity:1;stroke:#000000;stroke-width:5.94687" />
          <path
             class="st0"
             d="m 1492.02,950.75 h -32.49 v -4.99 c -22.04,3.9 -34.4,5.84 -37.05,5.84 -8.17,0 -14.58,-2.4 -19.24,-7.2 -4.66,-4.8 -6.98,-11.33 -6.98,-19.6 v -89.07 c 0,-11.69 4.18,-19.81 12.54,-24.37 6.08,-3.42 15.3,-5.13 27.65,-5.13 2.75,0 6.75,0.1 11.97,0.28 5.22,0.19 8.93,0.28 11.12,0.28 v -79.1 h 32.49 v 223.06 z m -32.5,-28.07 v -88.65 h -20.09 c -7.22,0 -10.83,3.61 -10.83,10.83 v 68.83 c 0,7.03 3.42,10.55 10.26,10.55 1.61,0.01 8.5,-0.52 20.66,-1.56 z"
             id="path34-1"
             style="fill:#2a639a;fill-opacity:1;stroke:#000000;stroke-width:5.94687" />
          <path
             class="st0"
             d="m 1606.17,932.94 c 0,11.88 -6.03,17.82 -18.1,17.82 h -54.87 c -12.07,0 -18.1,-5.94 -18.1,-17.82 v -30.93 h 31.21 v 24.23 h 28.65 v -22.8 l -50.02,-29.5 c -6.56,-3.89 -9.83,-9.12 -9.83,-15.68 v -33.63 c 0,-11.87 6.13,-17.81 18.38,-17.81 h 54.3 c 12.06,0 18.1,5.94 18.1,17.81 v 28.93 h -30.93 v -22.23 h -28.65 v 20.81 l 49.88,29.22 c 6.65,3.8 9.98,9.12 9.98,15.96 z"
             id="path36-7"
             style="fill:#2a639a;fill-opacity:1;stroke:#000000;stroke-width:5.94687" />
        </g>
      </g>
    </g>
    <g
       id="g2685"
       transform="translate(0,3.6102113)">
      <rect
         style="fill:#e6e6e6;stroke:#000000;stroke-width:1.665;stroke-linejoin:round;paint-order:fill markers stroke"
         id="rect932-9"
         width="77.878609"
         height="52.512432"
         x="112.48592"
         y="84.317734"
         ry="7.0801268"
         rx="7.0801268" />
      <text
         xml:space="preserve"
         style="font-size:12.2372px;line-height:1.15;font-family:sans-serif;letter-spacing:0px;word-spacing:0px;stroke-width:0.264582"
         x="152.25551"
         y="107.58662"
         id="text2509"><tspan
           sodipodi:role="line"
           id="tspan2507"
           style="text-align:center;text-anchor:middle;stroke-width:0.264582"
           x="152.25551"
           y="107.58662"
           dy="0.1">Enterprise </tspan><tspan
           sodipodi:role="line"
           style="text-align:center;text-anchor:middle;stroke-width:0.264582"
           x="152.25551"
           y="121.65939"
           id="tspan2511">Features</tspan></text>
    </g>
    <g
       id="g2667"
       transform="translate(0.04766083,3.1750001)">
      <rect
         style="fill:#e6e6e6;stroke:#000000;stroke-width:1.665;stroke-linejoin:round;paint-order:fill markers stroke"
         id="rect932-9-2"
         width="77.878609"
         height="52.512432"
         x="112.43826"
         y="-206.72881"
         ry="7.0801268"
         rx="7.0801268"
         transform="scale(1,-1)" />
      <text
         xml:space="preserve"
         style="font-size:12.2372px;line-height:1.15;font-family:sans-serif;letter-spacing:0px;word-spacing:0px;stroke-width:0.264582"
         x="152.22958"
         y="178.06592"
         id="text2509-4"><tspan
           sodipodi:role="line"
           id="tspan2507-7"
           style="text-align:center;text-anchor:middle;stroke-width:0.264582"
           x="152.22958"
           y="178.06592"
           dy="0.1">Enterprise </tspan><tspan
           sodipodi:role="line"
           style="text-align:center;text-anchor:middle;stroke-width:0.264582"
           x="152.22958"
           y="192.1387"
           id="tspan2511-5">Support</tspan></text>
    </g>
    <g
       id="g2661"
       transform="translate(-1.2213383,2.476117)">
      <rect
         style="fill:#e6e6e6;stroke:#000000;stroke-width:1.665;stroke-linejoin:round;paint-order:fill markers stroke"
         id="rect932-9-2-4"
         width="77.878609"
         height="52.512432"
         x="22.778797"
         y="-207.42769"
         ry="7.0801268"
         rx="7.0801268"
         transform="scale(1,-1)" />
      <text
         xml:space="preserve"
         style="font-size:12.2372px;line-height:1.15;font-family:sans-serif;letter-spacing:0px;word-spacing:0px;stroke-width:0.264582"
         x="62.57011"
         y="178.7648"
         id="text2509-4-8"><tspan
           sodipodi:role="line"
           id="tspan2507-7-1"
           style="text-align:center;text-anchor:middle;stroke-width:0.264582"
           x="62.57011"
           y="178.7648"
           dy="0.1">Enterprise </tspan><tspan
           sodipodi:role="line"
           style="text-align:center;text-anchor:middle;stroke-width:0.264582"
           x="62.57011"
           y="192.83759"
           id="tspan2511-5-0">Services</tspan></text>
    </g>
  </g>
  <style
     type="text/css"
     id="style2">
	.st0{fill:#00A9DD;}
	.st1{fill:#0094D4;}
</style>
  <style
     type="text/css"
     id="style2-9">
	.st0{fill:#00A9DD;}
	.st1{fill:#0094D4;}
</style>
</svg>
